<?xml version="1.0" encoding="iso-8859-1"?>
<!-- Generator: Adobe Illustrator 19.0.0, SVG Export Plug-In . SVG Version: 6.00 Build 0)  -->
<svg version="1.1" id="Capa_1" xmlns="http://www.w3.org/2000/svg" xmlns:xlink="http://www.w3.org/1999/xlink" x="0px" y="0px"
	 viewBox="0 0 512 512" style="enable-background:new 0 0 512 512;" xml:space="preserve">
<g>
	<g>
		<path d="M0,131v340h512V131H0z M90,356c0-33.137,26.863-60,60-60c-16.569,0-30-13.432-30-30s13.431-30,30-30
			c16.569,0,30,13.432,30,30s-13.431,30-30,30c33.137,0,60,26.863,60,60H90z M392,376H280v-30h112V376z M422,316H280v-30h142V316z
			 M422,256H280v-30h142V256z"/>
	</g>
</g>
<g>
	<g>
		<rect x="226" y="41" width="60" height="60"/>
	</g>
</g>
<g>
</g>
<g>
</g>
<g>
</g>
<g>
</g>
<g>
</g>
<g>
</g>
<g>
</g>
<g>
</g>
<g>
</g>
<g>
</g>
<g>
</g>
<g>
</g>
<g>
</g>
<g>
</g>
<g>
</g>
</svg>
