<?xml version="1.0" encoding="utf-8"?>
<!-- Generator: Adobe Illustrator 23.0.1, SVG Export Plug-In . SVG Version: 6.00 Build 0)  -->
<svg version="1.1" id="Layer_1" xmlns="http://www.w3.org/2000/svg" xmlns:xlink="http://www.w3.org/1999/xlink" x="0px" y="0px"
	 viewBox="0 0 636 187" style="enable-background:new 0 0 636 187;" xml:space="preserve">
<style type="text/css">
	.st0{font-family:'BookmanOldStyle-Bold';}
	.st1{font-size:82.9252px;}
	.st2{fill:#009EF4;}
	.st3{fill:#A0E45A;}
	.st4{opacity:0.1;}
	.st5{fill:#A0E45A;stroke:#F2F2F2;stroke-miterlimit:10;}
</style>
<text transform="matrix(1 0 0 1 165.542 122.9961)" class="st0 st1">Expariates</text>
<g>
	<path class="st2" d="M89,158c-35.09,0-63.54-28.45-63.54-63.54c0-35.09,28.45-63.54,63.54-63.54s63.54,28.45,63.54,63.54"/>
	<path class="st2" d="M152.54,94.46c0,35.09-28.45,63.54-63.54,63.54"/>
	<path class="st3" d="M150.3,77.75c-1.06-0.48-2.03-1.16-2.89-2.09c-1.09-1.19-3.03-1.81-4.03-3.02c-0.52-0.63-0.6-2.72-1.84-1.53
		c0.09-1.05-0.33-3.54,1.53-3.31c2.03,0.25,1.1,2.45,1.57,3.58c0.55,1.32,2.4,1.43,3.45,2.18c0.71,0.51,1.14,1.26,1.54,1.86"/>
	<path class="st3" d="M149.64,75.43c-2.68-8.54-7.12-16.29-12.88-22.86c0,0.05-0.01,0.1-0.01,0.15c-1.35-0.09-2.56,1.7-2.31,2.83
		c0.04,0.19,0.59,0.52,0.66,0.93c0.07,0.41-0.29,0.58-0.3,0.9c-0.03,0.75-0.22,1.45,0.79,1.65c0.65-1.24,2.11,0.23,2.4,1.05
		c0.52,1.44-0.11,2.17,0.91,3.34c0.4,0.45,1.58,1.01,1.34,1.81c-0.23,0.79-0.84,0.64-1.42,0.42c-0.94-0.36-1.44-1.77-2.55-1.81
		c-0.74,1.83-0.05,4.21-0.63,6.16c-0.32,1.09-0.72,1.13,0.22,1.93c0.34,0.29,0.57-0.03,0.97,0.44c0.23,0.28,0.24,0.87,0.21,1.21
		c0.52-0.31,0.98-0.8,1.64-0.73c-0.99,0.85-0.84,2.46-1.53,3.55c-0.86,1.37-1.58,0.91-2.77,1.46c-2.07,0.96-1,2.82-1.22,4.36
		c-0.13,0.9-0.87,1.66-1.22,2.53c-0.5,1.24-0.82,2.49-0.84,3.82c-0.03,1.55,0.47,2.95,0.77,4.46c0.24,1.22,0.24,3.55,1.43,4.26
		c0.72,0.43,3.03,0.34,4,0.49c0.94,0.14,2.12-0.37,2.94,0.05c0.77,0.39,0.7,1.71,1.75,1.41c0.59-0.17,0.93-1.55,1.67-1.81
		c1.18-0.42,2.12,0.67,2.45,1.6c0.42,1.18-0.2,1.23-0.52,2.49c-0.25,0.99-0.01,2.05,0.32,2.98c0.66,1.88-0.07,1.06-0.76,2.81
		c0.49,0.15,1.02,0.18,1.52,0.17c0.04,0.67,0.18,1.66,0.03,2.32c-0.43,1.84-2.22,2.86-2.31,5c-0.09,1.96,0.81,4.32,0.44,6.23
		c-0.27,1.4-1.86,2.32-1.6,3.94c0.89-0.57,1.56-1.47,2.54-1.95c4.33-8.59,6.79-18.29,6.79-28.57"/>
	<path class="st3" d="M100.57,145.95c0.34-1.45,2.43-2.62,3.14-3.84c0.76-1.31,0.55-2.53,2.12-3.12c0.44-0.16,0.96-0.08,1.4-0.26
		c0.55-0.23,0.84-0.74,1.38-1c1.46-0.69,1.8-0.51,2.4-2.14c0.74-1.97,1.37-4.47,3.25-5.72c0.74-0.49,1.55-0.46,2.35-0.8
		c0.88-0.38,1.15-0.98,1.87-1.49c1.15-0.81,1.9-1.46,2.84-2.54c1-1.14,1.79-2.43,2.54-3.78c0.47-0.85,0.67-1.64,1.39-2.33
		c0.3-0.29,0.76-0.41,1.09-0.74c1.29-1.28,1.77-3.34,2.89-4.75c0.63-0.79,1.25-1.24,1.6-2.16c-0.1-0.34-0.35-0.58-0.51-0.87
		c-0.27-0.49-0.93-0.95-1.26-1.46c-0.12-0.18-0.16-0.73-0.27-0.85c-0.92-0.99-3.16-1.51-4.41-1.56c-1.71-0.07-4.26-0.33-5.37-1.87
		c-0.83-1.15,0.59-2.78,0.05-4c-0.68-1.52-4.23-2.26-5.59-3.09c-0.94-0.57-1.57-1.44-2.51-2.02c-1.36-0.85-2.18-1.2-2.76-2.7
		c-0.35-0.9,0.19-1.05-0.9-1.39c-1.01-0.32-2.6,0.57-3.73,0.66c-0.84,0.07-1.79,0.24-2.61-0.01c-1-0.3-1.74-1.44-2.78-1.63
		c-0.94-0.18-2.79,0.27-3.65,0.83c-0.72,0.48-1.12,1.33-1.92,1.7c-1.16,0.54-1.07-0.17-2.2-0.26c-1.12-0.1-1.7,0.51-2.56-0.76
		c-1.16-1.72-0.69-5.24-3.42-5.42c-0.82-0.05-2.38,0.63-2.88-0.41c-0.74-1.54,1.91-3.58,1.53-5.24c-0.4-1.73-3.63,0.54-4.36,1.5
		c-0.46,0.61-0.83,2.11-1.81,2.21c-0.73,0.08-2.24-0.89-2.69-1.43c-0.77-0.94-0.83-2.76-0.94-3.94c-0.21-2.23,0.3-2.92,1.86-4.58
		c1.37-1.47,1.66-1.6,3.41-1.9c1.08-0.19,1.07-0.57,1.98-0.09c0.44,0.23,0.71,0.91,1.25,1.13c0.75-0.72,1.25-0.96,2.25-0.76
		c0.72,0.14,2.23,0.98,2.62,1.65c0.24,0.41,0.62,4.11,1.95,1.84c-0.78-0.64-0.57-1.39-0.88-2.1c-0.3-0.68-1.04-1.22-1.17-2.11
		c-0.16-1.03,0.76-3.18,1.92-3.41l-0.13-1.16c1.3-0.18,2.85-3.34,2.58-4.9c-0.13-0.77-0.98-0.71-0.53-1.83
		c0.53-1.31,1.43-0.63,2.54-0.87c1.15-0.25,0.95-0.97,1.74-1.55c0.86-0.64,1.27-0.15,2-0.12c1.37,0.06,3.17,0.36,3.27-1.54
		c0.84-0.12,1.57-0.38,2.41-0.02c0.11-1.5-0.22-2.57-1.49-3.42c-1.13-0.76-2.6-0.98-3.76-1.72c-0.75-0.48-1.28-1.17-1.99-1.67
		c-1.14-0.82-1.93-1.72-2.96-2.64c-1.32-1.17-2.58,0.31-4.33,0.06c-2.31-0.32-2.16-2.07-3.59-3.1c-0.16-0.12-0.64,0.04-0.85-0.06
		c-0.26-0.13-0.81-0.73-1.02-0.96c-0.73-0.78-1.42-1.93-1.49-3.1c2.55-1.46,3.2,2.03,4.26,3.3c0.48,0.58,2.38,0.94,0.9,1.84
		c1.03,0.07,1.94-0.08,2.9,0.15c0.45,0.11,0.84,0.35,1.33,0.38c0.1-0.79-0.18-1.57-0.34-2.33c-0.07-0.35,0.03-0.71-0.12-1.05
		c-0.21-0.49-0.74-0.74-0.93-1.15c-0.57-1.18,0.14-1.18-1.14-1.89c-0.88-0.49-1.95-0.84-2.86-1.25c-0.63-0.28-1.31-0.53-1.79-1.01
		c-0.23-0.23-1.66-1.74-1.77-2.01c-1.01-2.52,2.94-0.23,3.85-0.01c1.47,0.35,2.97,0.92,4.37,1.46c1.17,0.44,1.19,0.71,1.63,1.87
		c0.81,2.11,1.95,1.1,3.23,2.51c0.77,0.85,1.38,2.38,2.05,3.38c0.84,1.27,4.15,5.23,6,3.32c0.99-1.02-0.92-2.81-0.96-3.8
		c-0.04-1.06,0.67-1.71,1.41-2.29c1.23-0.97,1.51-1.37,0.06-2.54c-1.78-1.44-3.75-1.68-5.88-2.35c-2.31-0.73-2.93-2.07-4.1-3.94
		c0.77-0.14,1.58-0.2,2.38-0.28c0.69-0.06,1.39-0.09,2.07,0.03c0.78,0.14,1.66,0.13,2.43,0.32c0.87,0.21,1.5,0.81,2.44,0.43
		c0.43-0.17,0.79-0.52,1.07-0.91c-4.62-1.07-9.43-1.65-14.37-1.65c-11.61,0-22.48,3.13-31.85,8.57c2.43,0.15,1.88,2.88,3.98,0.63
		c0.93-1,1.97-2.37,3.15-3.25c1.33-0.98,2.85-0.32,4.46-0.36c-0.53,0.38-3.52,2.53-3.19,3.23c0.45,0.97,2.11-0.21,1.46,1.66
		c-0.58,1.66-2.95,0.53-4.41,0.64c-1.14,0.09-1.76,0.85-2.98,0.91c-1.29,0.06-2.58-0.3-3.83-0.26c-2,0.06-3.29,1.21-4.51,2.62
		c-0.71,0.82-1.54,1.43-2.06,2.41c-0.57,1.07-0.34,2.48-0.87,3.45c-0.45,0.83-1.49,0.97-2.23,1.46c-0.87,0.59-1.98,1.64-2.67,2.44
		c-1.19,1.39-1.72,4.02-3.76,4.52c-0.29,2.14,2.95-0.84,3.92-0.42c0.49-0.65,0.68-1.52,1.42-2.01c0.78-0.52,1.76-0.4,2.61-0.94
		c1.6-1.02,1.08-3.25,3.07-3.62c1.6-0.3,3.4-0.62,3.79,1.15c0.2,0.88-0.15,0.79-0.17,1.64c-0.03,1.13-0.13,0.44,0.72,1.13
		c1.28,1.05,1.49,2.32,0.49,3.8c-0.48,0.7-0.76,0.6-1.04,1.51c-0.29,0.95-0.19,1.88-0.16,2.84c0.04,1.07-0.07,2.1-0.1,3.16
		c-0.06,1.77,0.37,2.43,1.77,3.55c1.07,0.85,2.2,1.47,2.75,2.8c0.48,1.15,0.39,2.53,0.7,3.71c0.33,1.23,3.41,3.82,3.07,1.62
		c-0.17-1.13-1.47-1.39-1.46-2.77c0-0.56,0.23-1.39,0.29-1.98c1.76-0.48,1.3,2.53,1.77,3.42c0.67,1.27,2.43,2.09,3.34,3.11
		c-0.85,0.4-2.28,1.23-1.81,2.4c0.6,1.49,2.5,0.45,3.54,0.47c2.29,0.05,4.56,1.58,6.42,2.8c1.77,1.16,2.49,1.86,4.72,1.69
		c1.45-0.11,2.73,0.1,4.04,0.79c1.06,0.56,1.57,1.05,2.11,2.08c0.71,1.35,1.03,1.83,2.22,2.74c0.78,0.6,1.19,1.25,2.05,1.2
		c0.6-0.03,1.03-0.89,1.93-0.61c1.72,0.54,1.22,2.72,0.66,3.73c-0.48,0.85-0.92,1.94-1.45,2.78c-0.67,1.07-2.44,1.46-2.64,2.88
		c-0.19,1.34,1.3,2.87,1.63,4.14c0.3,1.15,0.27,2.41,0.27,3.59c-0.76,1.08,3.77,4.91,4.61,5.65c1.23,1.07,3.03,2.5,3.51,4.14
		c0.2,0.67,0.08,1.72,0.15,2.43c0.14,1.47,0.17,3.02,0.11,4.51c-0.1,2.19-1.67,3.53-2.05,5.61c-0.3,1.67,0.3,3.42,0.04,5.07
		c-0.12,0.75-0.26,1.8-0.44,2.53c-0.18,0.7-0.54,0.72-0.84,1.23c-0.53,0.92-0.26,1.83,0.19,2.83"/>
	<path class="st3" d="M73.88,49.03c-0.3,0.79-0.85,0.55-1.37,0.95c-0.79,0.62,0.61,1.72,0.04,2.13c-0.2,0.14-1.3,0.08-1.54,0
		c-0.64-0.21-0.83-0.66-1.58-0.65c-0.97,0.01-1.96-0.18-1.74-1.41c0.1-0.58,0.68-1.15,0.41-1.78c-0.13-0.31-0.75-0.79-1.02-0.97
		c-0.26-0.18-0.57-0.15-0.8-0.29c-0.51-0.32-0.31-1.56,0.25-1.78c0.02,1.72,2.57,0.17,3.1,0.96c0.49,0.78-0.52,1.09,0.14,1.61
		c0.39,0.3,1.41,0.3,1.8,0.19c0.6-0.18,1.6-1.08,2.2-0.42C74.01,47.83,74,48.71,73.88,49.03z"/>
	<path class="st3" d="M82.06,46c0.63,0.18,0.52,0.49,0.85,0.99c0.38,0.57,1,0.51,1.45,0.93c0.85,0.78-0.49,1.82,0,2.78
		c0.43,0.84,5.29,2.11,2.12,3.14c-0.93,0.3-1.48-0.31-2.32-0.54c-0.7-0.2-2.07-0.08-2.71,0.29c-1.55,0.9,1.92,2.57-0.22,3.21
		c-0.43,0.13-1.84,0.05-1.99-0.49c-0.13-0.48,0.54-0.47,0.67-0.92c0.55-1.8-1.66-0.69-2.27-0.85c-0.87-0.22-0.6-1.78,0.09-2.13
		c0.37-0.19,1.32-0.09,1.73-0.1c0.68-0.01,1.36,0.09,2.04,0.03c0.31-1.3-1.64-1.97-2.67-2.11c-0.81-0.11-0.92-0.27-1.59-0.76
		c-0.8-0.58-1.16-0.42-0.59-1.49c0.49-0.93,1.3-1.43,2.1-2.06c0.38-0.19,0.67,0.2,1.04,0.24C80.55,46.25,81.32,45.79,82.06,46z"/>
	<path class="st3" d="M87.64,79.14c-0.72-0.25-3.3,0.68-2.25,1.44c0.72,0.52,2.42-0.15,3.29,0.05c0.9,0.21,1.97-0.12,2.82,0.23
		c0.63,0.26,0.98,0.84,1.68,1.02c0.86,0.21,1.31-0.14,0.51-0.8c-0.56-0.47-1.34-0.59-1.99-0.9c-0.49-0.23-0.94-0.67-1.43-0.81
		C89.63,79.21,88.16,79.8,87.64,79.14z"/>
	<path class="st3" d="M96.66,83c-0.64,0.4-1.24,0.6-1.45,1.42c-0.25,0.96,0.15,0.78,0.79,0.41c0.41-0.24,0.97-0.64,1.48-0.61
		c0.48,0.02,0.91,0.39,1.39,0.48c0.85,0.15,1.78,0.02,2.45-0.56c0.53-0.46,0.57-1.07-0.26-1.2c-0.63-0.1-1.63,0.21-2.29,0.27
		C98.08,83.28,97.01,83.32,96.66,83z"/>
	<path class="st3" d="M89,158c15.49,0,29.68-5.55,40.71-14.76c-0.01-0.21-0.02-0.41-0.05-0.61c-0.85,0.35-2.2,0.85-2.97,1.38
		c-1.45,1-2.34,2.37-4.05,3.07"/>
	<g>
		<path class="st3" d="M27.43,95.1c0.23-0.59,0.43-1.42,0.28-2.05c-0.17-0.72-0.51-0.66-0.84-1.23c-0.92-1.58,0.45-1.77,0.45-3.11
			c0-0.78-1.62-2.63-0.55-3.43c0.48-0.36,2.25,0.51,3.11,0.15c-0.15-1.28-1.41-0.89-1.93-1.76c-0.76-1.3,0.51-1.57,0.9-2.15
			c1.28-1.88-0.53-2.82-0.99-4.36c-1.56,5.51-2.41,11.31-2.41,17.31c0,0.23,0.01,0.45,0.02,0.68C25.94,94.74,26.55,94.62,27.43,95.1
			z"/>
		<path class="st3" d="M29.52,77.06c0.64-0.2,0.39-1.76,0.51-2.19c0.33-1.2,1.21-2.74,1.87-3.73c1.05-1.57,0.58-2.15,0.35-4.06
			c-0.04-0.32-0.06-0.67-0.09-1.02c-1.55,3.1-2.86,6.33-3.89,9.69C28.62,76.31,29.08,77.2,29.52,77.06z"/>
	</g>
	<path class="st3" d="M28.1,87.51c-0.99,2.91,2.13,3.32,2.19,5.73c0.02,0.89-0.43,3.94,1.42,3.71c0.75-1.69-0.45-1.93-0.24-3.49
		c0.14-1.06,0.91-1.36-0.28-2.25c-0.33-0.24-0.91-0.25-1.17-0.51c-0.36-0.35-0.3-0.83-0.52-1.19C29.11,88.89,28.48,88.49,28.1,87.51
		z"/>
	<path class="st3" d="M28.1,97.55c-0.79,1.73-2.24,7.97,0.57,8.09c0.31,0.01,0.88-0.56,1.2-0.34c0.25,0.16,0.03,0.82,0.15,0.88
		c0.72,0.41,0.91,0.51,1.2-0.74c0.23-0.99-0.27-1.03-0.42-1.71c-0.13-0.61-0.06-1.13-0.02-1.78c-1.81-0.44,1.85-0.83,1.7-1.56
		c-0.11-0.56-2.82-0.4-3.21-0.27c-0.09-0.49,0.01-1.04,0.08-1.51C28.75,98.33,28.57,97.69,28.1,97.55z"/>
	<path class="st3" d="M37.24,103.22c-1.58,0.09-2.41-1.35-4.27-0.78c-0.01,0.38-0.1,0.8-0.1,1.15c0.42-0.12,2.37-0.58,2.05,0.54
		c-0.26,0.94-1.95-0.25-1.66,1.13c0.48-0.05,1.24-0.42,1.72-0.36c0.69,0.09,0.96,0.46,1.61,0.6c0.86,0.19,0.75-0.24,1.66,0.41
		c0.71,0.51,1.45,1.28,1.68,2.06c0.5,1.67-0.24,2.32,1.89,2.58c1.11,0.13,3.47,1.35,3.4-0.48c1.06,0.35,2.69,3.51,4.11,3.2
		c1.78-0.4-1.67-3.17-1.66-3.48c0.7-0.06,2.26-0.73,2.8-1.05c0.59-0.35,1.1-0.27,0.9-1.39c-0.84-0.1-1.21,0.31-1.87,0.48
		c-0.74,0.19-1.56,0.19-2.36,0.12c-2.03-0.17-3.68-0.87-5.27-2.17c-0.85-0.7-1.58-1.28-2.47-1.93c-0.58-0.43-0.56-0.7-1.22-0.89
		C37.78,102.83,37.39,103.06,37.24,103.22z"/>
	<path class="st3" d="M28.35,107.34c1.14,0,2.35,0.14,3.48,0c0.39-0.05,0.84-0.67,1.27-0.23c0.16,0.16,0.04,1.16-0.1,1.32
		c-0.69,0.76-4.47,0.52-4.25-0.96"/>
	<path class="st3" d="M45.73,116.23c-0.11-2-0.88-1.72-1.8-3c-0.32,0.83-0.68,2.48-1.79,2.61c-1.65,0.18-1.91-2.29-2.9-2.96
		c-1.42-0.97-4.63-0.03-4.96,1.29c-1.31,0.52-1.4,1.14-1.93,2.24c-0.34,0.71-0.82,1.54-1.32,2.27c-0.19,0.28-0.36,0.47-0.51,0.65
		c1.22,2.87,2.65,5.64,4.27,8.27c0.13,0.04,0.28,0.07,0.46,0.09c1.4,0.11,2.14-1.43,3.26-1.29c0.81,0.1,1.41,1.47,2.08,2.03
		c1.84,1.53,4.96,2.67,5.68,4.93c0.44,1.37,0.98,1.96,1.84,3.14c0.6,0.82,0.48,2.28,1.36,2.78c0.08-1.34,0.14-2.52,0.5-3.83
		c0.44-1.57-0.02-2.87,0.7-4.27c0.74-1.42,1.89-2.55,1.76-4.29c-0.09-1.18-0.97-2.68-1.81-3.53C48.19,120.91,45.94,120,45.73,116.23
		z"/>
	<path class="st3" d="M61.83,129.74c-1.03,0.2-0.67,2.21-0.97,3.03c-0.41,1.15-0.82,1.03-2.03,1.35c-0.66,0.17-1.64,0.35-2.28,0.64
		c-1.12,0.52-1.21,1.45-1.53,2.56c1.39,0.12,2.18-1.51,3.43-1.76c1.07-0.22,1.95,0.26,3.06-0.22c2.79-1.22,2.1-3.97,2.48-6.21
		C63.17,128.97,62.6,129.47,61.83,129.74z"/>
	<path class="st3" d="M62.99,118.02c-0.36,0.83,0.01,2.8,1.22,1.61c0.56-0.56,0.52-1.92-0.56-1.85c-0.01,0.17-0.08,0.22-0.15,0.37"
		/>
	<path class="st3" d="M72.13,120.08c-1.01,0.79,1.16,2.13,1.52,0.87C73.91,120.04,72.46,119.75,72.13,120.08"/>
	<path class="st3" d="M55.91,98.19c0.29,0.73,2.2,1.34,2.55,2.57c0.32,1.14,0.02,2.13,1.69,2.18c-0.04-0.81,0.4-1.88,0.03-2.59
		c-0.17-0.32-0.73-0.39-0.95-0.74c-0.24-0.39-0.05-0.81-0.22-1.16C58.64,97.71,55.52,96,55.91,98.19z"/>
	<path class="st4" d="M104.13,155.05c-36,0-65.18-29.18-65.18-65.18c0-24.22,13.22-45.34,32.83-56.58
		c-26.72,7.51-46.32,32.04-46.32,61.16C25.46,129.55,53.91,158,89,158"/>
</g>
<path class="st5" d="M35.91,132.24c-10.41-15.95-9.99-37.1-9.99-37.1c11.09,27.26,54.37,9.15,54.37,9.15l-2.68-12.3l48.19,7.85
	l-35.91,48.49l-2.55-11.71C47.56,148.19,39.74,138.11,35.91,132.24z"/>
</svg>
